<svg width="47" height="47" viewBox="0 0 47 47" fill="none" xmlns="http://www.w3.org/2000/svg">
<path d="M14.127 15.9817C18.0495 23.9714 21.3162 27.4188 28.8905 31.7154L26.5711 35.7047C17.8201 30.4467 12.6749 23.049 9.90615 17.466L14.127 15.9817Z" fill="#D9D4DD"/>
<path d="M14.6478 5.85675C16.077 6.06911 17.368 7.47159 17.501 8.85697C17.7102 11.0371 18.1353 12.6518 18.8994 14.6895C19.3192 15.8088 18.9536 16.8249 18.2016 17.4005C17.188 18.1764 16.4939 19.2561 15.9554 20.1946C15.209 21.4954 11.8013 20.8739 10.7913 19.1787C8.71554 15.6948 6.68604 9.55006 8.27072 5.84947C8.51963 5.2682 9.17653 5.04379 9.91351 5.15329L14.6478 5.85675Z" fill="#D9D4DD"/>
<path d="M40.3141 33.21C40.2627 31.8445 38.9437 30.4655 37.5034 30.1742C35.2369 29.7158 33.5907 29.1232 31.5405 28.1617C30.4144 27.6335 29.3024 27.8541 28.6069 28.4899C27.6694 29.3468 26.451 29.8678 25.3997 30.2598C23.9426 30.8032 24.186 34.0728 25.8465 35.2236C29.2591 37.5887 35.4743 40.2304 39.5548 39.1897C40.1958 39.0263 40.5107 38.4374 40.4842 37.7333L40.3141 33.21Z" fill="#D9D4DD"/>
</svg>
